<?xml version="1.0" standalone="no"?>
<!DOCTYPE svg PUBLIC "-//W3C//DTD SVG 20010904//EN"
 "http://www.w3.org/TR/2001/REC-SVG-20010904/DTD/svg10.dtd">
<svg version="1.0" xmlns="http://www.w3.org/2000/svg"
 width="277.000000pt" height="300.000000pt" viewBox="0 0 277.000000 300.000000"
 preserveAspectRatio="xMidYMid meet">

<g transform="translate(0.000000,300.000000) scale(0.100000,-0.100000)"
fill="#000000" stroke="none">
<path d="M1289 2707 c-127 -48 -189 -129 -189 -249 0 -96 52 -188 182 -324
l39 -41 -38 -7 c-21 -3 -58 -15 -83 -27 l-45 -20 25 -14 c33 -19 49 -19 24 -1
-26 20 -13 29 28 20 18 -4 27 -9 21 -11 -15 -5 -17 -23 -4 -23 5 0 17 7 26 17
13 13 19 13 25 4 5 -9 10 -10 14 -2 9 15 59 14 74 -1 16 -16 15 -25 -4 -32
-22 -8 -40 4 -23 15 10 6 6 9 -12 9 -15 0 -32 -7 -39 -15 -7 -8 -16 -12 -21
-9 -15 9 -49 -6 -49 -22 0 -8 7 -14 15 -14 8 0 15 -5 15 -10 0 -6 8 -5 20 2
11 7 20 18 20 25 0 7 9 13 20 13 11 0 20 -4 20 -10 0 -5 7 -7 15 -4 8 4 16 2
16 -2 9 -65 10 -63 -19 -48 -20 10 -28 10 -33 2 -4 -7 -6 -15 -4 -18 2 -4 -2
-7 -10 -7 -18 0 -93 -64 -94 -81 -1 -10 -5 -10 -21 0 -28 18 -74 -1 -78 -31
-3 -20 0 -23 18 -18 25 6 50 -12 50 -38 0 -14 -2 -14 -24 0 -13 9 -36 18 -52
21 -37 7 -44 12 -44 32 -1 19 -30 63 -30 45 0 -7 5 -15 10 -18 13 -8 13 -25 0
-25 -6 0 -13 13 -16 29 -11 53 -32 45 -45 -17 -34 -167 62 -338 229 -408 59
-25 79 -29 167 -28 119 0 188 23 258 84 l45 40 -14 47 c-8 27 -13 57 -10 68 3
11 -2 29 -10 39 -8 11 -14 28 -14 38 0 19 -13 22 -68 19 -45 -4 -72 22 -70 66
1 22 8 39 20 46 10 7 18 17 18 24 0 7 5 13 10 13 6 0 8 11 4 25 -5 20 -3 25
14 25 14 0 19 6 17 18 -2 9 -4 24 -5 32 -1 10 -3 11 -7 3 -2 -7 -9 -13 -15
-13 -6 0 -6 6 2 15 17 21 27 19 35 -6 5 -15 10 -18 18 -10 6 6 26 11 43 11 32
0 50 11 37 24 -3 3 -12 1 -19 -5 -9 -7 -19 -7 -35 2 -21 11 -21 13 -5 24 16
12 15 15 -12 33 -34 25 -125 62 -151 62 -14 0 -2 17 43 63 40 41 75 90 101
142 35 70 40 90 43 161 4 91 -7 124 -62 182 -51 55 -100 75 -191 79 -51 2 -93
-2 -116 -10z m194 -11 c62 -18 121 -67 146 -119 37 -77 21 -219 -29 -254 -15
-11 -18 -18 -11 -27 13 -16 4 -27 -15 -19 -8 3 -14 0 -14 -6 0 -6 4 -11 10
-11 5 0 7 -7 4 -15 -5 -12 -10 -13 -19 -5 -11 9 -12 7 -8 -10 4 -17 2 -19 -13
-13 -16 6 -17 4 -7 -8 10 -12 8 -18 -7 -32 -11 -9 -22 -17 -24 -17 -6 0 -1 23
8 40 5 8 -3 4 -17 -9 -24 -21 -29 -50 -7 -36 5 3 11 1 15 -5 12 -19 -25 -22
-53 -5 -15 10 -21 12 -15 5 10 -11 10 -17 0 -29 -11 -14 -10 -14 6 -2 9 8 21
11 24 7 18 -18 -65 -28 -139 -17 -17 3 -154 182 -179 236 -103 216 101 424
344 351z m127 -386 c0 -5 -5 -10 -11 -10 -5 0 -7 5 -4 10 3 6 8 10 11 10 2 0
4 -4 4 -10z m-292 -591 c2 -5 9 -9 16 -9 7 0 22 -11 34 -25 12 -14 32 -25 45
-25 31 0 48 -18 36 -39 -5 -9 -13 -28 -19 -43 -5 -16 -16 -28 -25 -28 -8 0
-15 -9 -15 -19 0 -11 -16 -33 -36 -49 -34 -28 -36 -32 -26 -61 9 -25 8 -31 -3
-31 -23 0 -43 40 -56 115 -10 53 -20 77 -41 99 -30 32 -36 64 -15 85 10 11 9
14 -1 18 -10 4 -6 9 10 18 24 13 90 9 96 -6z"/>
<path d="M1309 2643 c-15 -7 -33 -21 -40 -30 -10 -11 -10 -14 -1 -9 18 11 15
-4 -5 -27 -10 -11 -13 -17 -6 -14 6 4 13 1 16 -5 2 -7 8 -9 13 -5 5 4 2 12 -5
16 -10 6 -10 10 -1 16 6 4 21 -1 32 -12 12 -10 18 -12 14 -5 -10 17 3 35 17
23 8 -6 18 -5 31 4 15 12 16 16 5 28 -12 13 -17 12 -41 -10 -24 -23 -56 -25
-42 -2 3 5 10 6 16 3 6 -4 8 -2 4 4 -3 6 2 15 11 21 28 15 11 19 -18 4z m61
-31 c0 -13 -12 -22 -22 -16 -10 6 -1 24 13 24 5 0 9 -4 9 -8z"/>
<path d="M1145 2460 c-11 -34 4 -75 40 -110 30 -29 43 -34 96 -38 l62 -5 -7
49 c-11 84 -55 124 -138 124 -38 0 -48 -4 -53 -20z m125 -7 c31 -18 45 -43 55
-97 l7 -36 -43 0 c-54 0 -80 13 -61 32 29 29 -3 73 -43 58 -19 -7 -24 -6 -27
8 -2 9 -2 25 0 35 6 23 73 23 112 0z m-55 -92 c-13 -14 -17 -13 -32 2 -17 17
-17 19 2 33 18 13 21 13 32 -3 11 -14 11 -20 -2 -32z"/>
<path d="M1495 2468 c-56 -31 -95 -101 -79 -143 15 -37 140 4 173 56 6 10 14
36 17 59 l7 40 -49 0 c-27 0 -58 -6 -69 -12z m96 -10 c2 -17 -1 -40 -7 -57 -3
-9 -9 -7 -22 9 -35 43 -94 4 -77 -50 3 -11 11 -20 18 -20 8 0 8 3 -1 12 -18
18 -14 46 9 58 25 14 49 -2 49 -32 0 -21 -68 -57 -107 -58 -53 0 -10 115 51
140 32 13 86 12 87 -2z"/>
<path d="M1320 2255 c0 -8 7 -15 15 -15 8 0 15 7 15 15 0 8 -7 15 -15 15 -8 0
-15 -7 -15 -15z"/>
<path d="M1395 2260 c-3 -5 3 -10 15 -10 12 0 18 5 15 10 -3 6 -10 10 -15 10
-5 0 -12 -4 -15 -10z"/>
<path d="M1350 2135 c-7 -8 -17 -12 -23 -8 -6 3 -7 1 -3 -5 8 -14 33 -5 40 14
7 18 2 18 -14 -1z"/>
<path d="M1379 2123 c-12 -16 -12 -17 2 -6 9 7 19 10 22 6 4 -3 7 -1 7 5 0 17
-16 15 -31 -5z"/>
<path d="M1211 1908 c0 -13 3 -17 6 -10 8 19 26 14 18 -5 -5 -14 -3 -15 6 -6
15 15 5 43 -16 43 -9 0 -15 -9 -14 -22z"/>
<path d="M1668 1898 c7 -7 12 -16 12 -21 0 -5 -7 -1 -16 7 -22 22 -47 20 -63
-5 -12 -20 -11 -21 13 -17 16 3 29 0 34 -8 7 -13 122 -30 122 -18 0 4 -11 17
-24 29 -16 15 -28 19 -34 13 -7 -7 -14 -3 -21 11 -7 12 -17 21 -23 21 -9 0 -9
-3 0 -12z"/>
<path d="M768 1123 c-51 -3 -68 -8 -68 -18 0 -9 9 -15 21 -15 23 0 22 2 2
-102 -4 -21 -2 -28 11 -28 16 0 19 8 34 85 6 32 13 41 31 43 23 4 24 2 17 -40
-4 -23 -9 -53 -13 -65 -4 -16 -1 -23 10 -23 9 0 21 17 29 43 8 25 19 42 28 42
16 0 16 -2 5 -53 -6 -29 -5 -33 12 -30 10 2 19 13 21 27 l4 24 12 -24 c15 -30
60 -37 87 -13 14 13 16 20 8 31 -9 9 -9 13 0 13 16 0 14 45 -3 59 -19 16 -63
4 -81 -22 -12 -18 -15 -19 -15 -5 0 20 -29 38 -49 30 -10 -3 -13 2 -9 22 4 20
1 26 -11 24 -9 -1 -46 -3 -83 -5z m232 -73 c0 -5 -10 -10 -22 -10 -19 0 -20 2
-8 10 19 13 30 13 30 0z m-5 -50 c-3 -5 -12 -10 -20 -10 -8 0 -17 5 -20 10 -4
6 5 10 20 10 15 0 24 -4 20 -10z"/>
<path d="M1142 1114 c-44 -18 -69 -74 -51 -115 15 -37 53 -48 91 -26 24 14 28
14 28 2 0 -27 29 -16 35 13 9 38 20 57 38 60 13 3 14 -3 6 -35 -5 -21 -9 -41
-9 -44 0 -4 18 -7 39 -7 38 -1 40 1 46 38 4 21 13 41 20 44 11 4 13 -2 9 -23
-11 -54 55 -82 96 -41 l20 20 0 -20 c0 -38 28 -20 39 25 7 30 17 45 27 45 14
0 15 -8 10 -45 -6 -37 -4 -45 8 -45 9 0 16 6 16 13 0 8 3 8 9 -2 13 -20 41 -6
41 21 0 23 0 23 13 -2 15 -30 61 -39 86 -15 16 14 19 14 31 0 16 -19 50 -19
78 1 20 14 22 14 22 0 0 -27 29 -17 35 12 8 36 19 55 34 60 10 3 11 -7 6 -42
-6 -37 -4 -46 8 -46 9 0 19 17 26 45 7 28 17 45 26 45 17 0 19 -13 6 -58 -8
-28 -7 -32 9 -32 20 0 30 26 30 81 0 41 -19 56 -49 39 -10 -5 -21 -7 -24 -3
-4 3 -25 8 -47 10 -35 3 -40 1 -40 -17 0 -11 -4 -20 -10 -20 -5 0 -10 4 -10
10 0 5 -9 14 -20 20 -16 8 -28 7 -51 -4 -27 -14 -33 -14 -54 0 -26 17 -66 6
-85 -23 -9 -15 -10 -13 -5 12 3 17 8 38 11 48 4 12 0 17 -15 17 -16 0 -21 -9
-27 -46 -6 -39 -8 -44 -17 -28 -14 27 -13 26 -56 30 -35 3 -40 1 -46 -24 -7
-26 -7 -26 -15 -5 -11 26 -43 38 -68 24 -11 -6 -22 -7 -26 -4 -3 3 -19 8 -36
10 -25 2 -31 -1 -36 -25 -16 -70 -23 -87 -18 -40 5 38 3 48 -12 56 -11 5 -25
7 -33 4 -10 -3 -13 2 -9 22 4 20 1 26 -13 26 -13 0 -19 -7 -19 -22 0 -19 -2
-20 -17 -6 -28 24 -47 27 -81 12z m54 -39 c5 -12 10 -13 20 -4 16 13 18 1 8
-39 -5 -17 -11 -21 -25 -17 -11 4 -19 2 -19 -3 0 -13 -27 -23 -45 -16 -20 8
-19 53 2 76 20 22 51 24 59 3z m284 -43 c0 -21 -18 -42 -37 -42 -13 0 -18 41
-6 53 14 14 43 7 43 -11z m298 4 c6 -7 -11 -35 -18 -31 -5 3 -11 1 -15 -5 -9
-15 -35 -12 -41 5 -10 25 16 47 45 40 14 -4 27 -8 29 -9z m82 -5 c0 -10 -7
-24 -15 -31 -21 -17 -39 1 -30 29 8 27 45 28 45 2z m-233 -33 c-3 -7 -5 -2 -5
12 0 14 2 19 5 13 2 -7 2 -19 0 -25z"/>
<path d="M947 860 c-51 -40 -53 -113 -4 -140 25 -14 30 -13 57 2 26 15 30 15
30 2 0 -9 7 -14 17 -12 11 2 20 18 25 43 8 38 24 58 40 49 4 -3 5 -10 3 -17
-2 -7 -6 -27 -9 -44 -5 -32 -5 -33 33 -33 37 0 38 2 47 42 9 41 38 68 34 32
-8 -70 46 -96 95 -48 13 14 15 13 15 -5 0 -38 27 -22 39 23 6 24 18 47 27 50
15 6 16 0 10 -44 -6 -41 -4 -50 9 -50 8 0 15 6 15 13 0 8 3 8 9 -2 13 -20 41
-6 41 20 0 21 1 21 21 -5 23 -29 45 -33 76 -11 19 13 22 13 27 0 7 -20 35 -19
43 0 5 14 8 14 25 -2 16 -14 24 -15 50 -5 22 8 36 8 50 1 43 -23 105 23 77 57
-6 8 -17 14 -25 14 -7 0 -16 5 -19 11 -5 7 3 9 23 7 34 -3 43 11 18 27 -10 6
-26 6 -48 -3 -21 -8 -36 -8 -42 -2 -6 6 -22 10 -37 10 -30 0 -69 -40 -69 -71
0 -11 -4 -19 -9 -19 -4 0 -2 28 6 61 8 34 12 64 9 66 -12 13 -36 -9 -36 -32 0
-25 -14 -34 -25 -15 -11 18 -58 11 -82 -12 -15 -14 -22 -17 -19 -8 17 55 16
70 -4 70 -14 0 -20 -7 -21 -22 0 -13 -7 -45 -15 -73 -11 -41 -12 -43 -8 -12 7
49 -8 67 -57 67 -32 0 -39 -3 -39 -20 0 -25 -12 -26 -27 -1 -10 15 -24 19 -80
19 -72 1 -82 -5 -84 -48 -1 -19 -3 -17 -8 10 -5 29 -11 36 -34 38 -22 3 -27 7
-22 23 5 15 2 19 -14 19 -14 0 -21 -6 -21 -20 l0 -20 -20 20 c-25 25 -60 25
-93 0z m73 -31 c0 -6 7 -9 15 -5 16 6 18 -5 9 -41 -4 -13 -10 -20 -16 -17 -5
3 -15 0 -23 -6 -8 -6 -24 -10 -37 -8 -49 7 -27 88 24 88 15 0 28 -5 28 -11z
m280 -44 c0 -24 -31 -51 -44 -38 -10 10 -7 38 6 51 20 20 38 14 38 -13z m275
14 c4 -6 13 -8 21 -5 30 12 12 -25 -18 -38 -48 -20 -75 5 -42 38 18 19 30 20
39 5z m155 1 c0 -5 -9 -10 -21 -10 -11 0 -17 5 -14 10 3 6 13 10 21 10 8 0 14
-4 14 -10z m81 -53 c-4 -4 -20 -2 -35 4 -22 10 -32 10 -48 0 -15 -9 -23 -10
-31 -2 -8 8 -5 11 9 11 11 0 29 6 39 14 16 11 22 11 46 -3 16 -9 25 -19 20
-24z m-664 -19 c-3 -7 -5 -2 -5 12 0 14 2 19 5 13 2 -7 2 -19 0 -25z"/>
</g>
</svg>
